<svg xmlns="http://www.w3.org/2000/svg" xmlns:xlink="http://www.w3.org/1999/xlink" viewBox="0 0 939.03 820.8"><defs><style>.cls-1{fill:none;}.cls-2{fill:url(#Gradiente_sem_nome_3);}.cls-3{fill:url(#Безымянный_градиент_472);}.cls-26,.cls-4{opacity:0.55;}.cls-4{fill:url(#Безымянный_градиент_486);}.cls-5{fill:url(#Безымянный_градиент_474);}.cls-6{fill:#f6f6f6;}.cls-7{fill:#adebde;}.cls-8{fill:#fff;}.cls-9{fill:url(#Безымянный_градиент_442);}.cls-10{fill:#141b66;}.cls-11{fill:#b7eff9;}.cls-12{fill:#03abe5;}.cls-13{fill:#5fd1f9;}.cls-14{fill:url(#Безымянный_градиент_474-2);}.cls-15{fill:url(#Безымянный_градиент_442-2);}.cls-16{fill:#273661;}.cls-17{fill:#5fbeed;}.cls-18{fill:#3488d1;}.cls-19{fill:url(#Безымянный_градиент_452);}.cls-20{fill:#c6c6c6;}.cls-21{fill:url(#Безымянный_градиент_420);}.cls-22{fill:#1d5bb8;opacity:0.9;}.cls-23{fill:url(#Безымянный_градиент_296);}.cls-24{fill:url(#Безымянный_градиент_391);}.cls-25{fill:#2e5999;}.cls-26{fill:url(#Безымянный_градиент_486-2);}</style><linearGradient id="Gradiente_sem_nome_3" x1="21.88" y1="511.96" x2="855.05" y2="511.96" gradientUnits="userSpaceOnUse"><stop offset="0" stop-color="#00acff" stop-opacity="0.75"/><stop offset="0.15" stop-color="#04aefe" stop-opacity="0.76"/><stop offset="0.3" stop-color="#11b2fc" stop-opacity="0.77"/><stop offset="0.45" stop-color="#25baf8" stop-opacity="0.8"/><stop offset="0.61" stop-color="#42c4f2" stop-opacity="0.85"/><stop offset="0.77" stop-color="#68d2eb" stop-opacity="0.9"/><stop offset="0.93" stop-color="#95e2e3" stop-opacity="0.97"/><stop offset="1" stop-color="#adebde"/></linearGradient><linearGradient id="Безымянный_градиент_472" x1="564.61" y1="435.03" x2="861.7" y2="487.42" gradientUnits="userSpaceOnUse"><stop offset="0" stop-color="#0053a6" stop-opacity="0.8"/><stop offset="0.3" stop-color="#085cab" stop-opacity="0.77"/><stop offset="0.61" stop-color="#2176b9" stop-opacity="0.69"/><stop offset="0.92" stop-color="#4aa1d2" stop-opacity="0.54"/><stop offset="1" stop-color="#57aed9" stop-opacity="0.5"/></linearGradient><linearGradient id="Безымянный_градиент_486" x1="625.1" y1="492.02" x2="666.07" y2="724.35" gradientUnits="userSpaceOnUse"><stop offset="0" stop-color="#878787"/><stop offset="1" stop-color="#474957"/></linearGradient><linearGradient id="Безымянный_градиент_474" x1="75.11" y1="529.3" x2="254.83" y2="529.3" gradientUnits="userSpaceOnUse"><stop offset="0" stop-color="#004a94" stop-opacity="0.9"/><stop offset="0.26" stop-color="#065098" stop-opacity="0.89"/><stop offset="0.53" stop-color="#1864a4" stop-opacity="0.84"/><stop offset="0.8" stop-color="#3584b8" stop-opacity="0.77"/><stop offset="1" stop-color="#52a3cc" stop-opacity="0.7"/></linearGradient><linearGradient id="Безымянный_градиент_442" x1="67.42" y1="491.05" x2="129.79" y2="383.02" gradientUnits="userSpaceOnUse"><stop offset="0" stop-color="#113273"/><stop offset="1" stop-color="#0050bf"/></linearGradient><linearGradient id="Безымянный_градиент_474-2" x1="237.32" y1="622.95" x2="417.04" y2="622.95" xlink:href="#Безымянный_градиент_474"/><linearGradient id="Безымянный_градиент_442-2" x1="229.62" y1="584.7" x2="292" y2="476.67" xlink:href="#Безымянный_градиент_442"/><linearGradient id="Безымянный_градиент_452" x1="476.54" y1="381.01" x2="476.54" y2="49.98" gradientUnits="userSpaceOnUse"><stop offset="0" stop-color="#481a8c"/><stop offset="1" stop-color="#17aaeb"/></linearGradient><linearGradient id="Безымянный_градиент_420" x1="432.44" y1="559.27" x2="432.44" y2="253.69" gradientUnits="userSpaceOnUse"><stop offset="0" stop-color="#dadada"/><stop offset="0.08" stop-color="#dedede"/><stop offset="0.65" stop-color="#f6f6f6"/><stop offset="1" stop-color="#fff"/></linearGradient><linearGradient id="Безымянный_градиент_296" x1="610.87" y1="352.02" x2="697.99" y2="352.02" gradientUnits="userSpaceOnUse"><stop offset="0" stop-color="#ededed"/><stop offset="0.32" stop-color="#f2f2f2"/><stop offset="1" stop-color="#f6f6f6"/></linearGradient><linearGradient id="Безымянный_градиент_391" x1="630.91" y1="559.27" x2="630.91" y2="177.3" gradientUnits="userSpaceOnUse"><stop offset="0" stop-color="#a6a6a6"/><stop offset="0.14" stop-color="#b3b3b3"/><stop offset="0.44" stop-color="#c9c9c9"/><stop offset="0.73" stop-color="#d6d6d6"/><stop offset="1" stop-color="#dadada"/></linearGradient><linearGradient id="Безымянный_градиент_486-2" x1="854.99" y1="523.77" x2="599.51" y2="523.77" xlink:href="#Безымянный_градиент_486"/></defs><title>formAtivo 4</title><g id="Camada_2" data-name="Camada 2"><g id="Слой_1" data-name="Слой 1"><rect class="cls-1" width="939.03" height="820.8"/><path class="cls-2" d="M855,516.91C853.22,577,812.91,636.74,734,682.6c-79.6,46.25-183.68,69.8-288.33,70.64-108.54.86-217.68-22.69-300.77-70.67-163.23-94.23-164.13-247-2-341.23s425.93-94.24,589.16,0C815.87,389.71,856.87,453.52,855,516.91Z"/><path class="cls-3" d="M847.28,559.27H542.7L608.94,521V508l32.72-18.88L653,495.6l66.16-38.19V334.18q6.57,3.48,13,7.16C834.63,400.55,873.09,482.87,847.28,559.27Z"/><path class="cls-4" d="M855,516.91C853.22,577,812.91,636.74,734,682.6c-79.6,46.25-183.68,69.8-288.33,70.64l249.42-144a15.93,15.93,0,0,0,0-27.59l-95.57-55.19,9.43-5.44V508l32.72-18.88L653,495.6l12.69-7.33L761,543.34a48.23,48.23,0,0,0,48.19,0Z"/><polygon class="cls-5" points="296.99 555.13 172.25 483.12 75.11 503.47 102.23 519.12 80.46 519.12 80.46 525.32 112.96 525.32 157.09 550.79 135.62 550.79 135.62 556.99 167.81 556.99 199.85 575.49 296.99 555.13"/><path class="cls-6" d="M139.39,551.7c2.1,1.21,2.11,3.17,0,4.38a8.33,8.33,0,0,1-7.56,0c-2.1-1.21-2.11-3.17,0-4.38A8.33,8.33,0,0,1,139.39,551.7Z"/><rect class="cls-6" x="130.28" y="521.56" width="10.69" height="32.33"/><path class="cls-6" d="M84.23,520c2.09,1.21,2.11,3.17,0,4.38a8.33,8.33,0,0,1-7.56,0c-2.09-1.21-2.1-3.17,0-4.38A8.33,8.33,0,0,1,84.23,520Z"/><rect class="cls-6" x="75.11" y="489.89" width="10.69" height="32.33"/><path class="cls-7" d="M70.62,346.19,20.72,461.42l124.74,72,49.9-115.23Z"/><polygon class="cls-8" points="185.92 415.43 61.18 343.41 70.62 346.19 195.36 418.21 185.92 415.43"/><path class="cls-9" d="M63.92,345l-2.74-1.58L11.29,458.64,14,460.22l122,70.43,48.56-112.16,1.33-3.06Z"/><polygon class="cls-10" points="171.78 407.27 185.92 415.43 136.02 530.66 24.14 466.06 171.78 407.27"/><polygon class="cls-11" points="195.36 418.21 145.47 533.44 136.02 530.66 185.92 415.43 195.36 418.21"/><path class="cls-12" d="M183.18,413.84h0l-11.4-6.58-3.92,1.56,14,8.08-22.95,53-27.76-16,15.92-36.79-4.13,1.65L128.4,452.32l-27.76-16,.36-.83-5,2,.56.33-23,53-27.76-16,9.08-20.95-4.14,1.64-7.68,17.73-15-8.68-3.92,1.56,17.63,10.18h0l2.73,1.58h0l27.76,16h0L75,495.44h0l27.76,16h0l2.73,1.59h0L136,530.65l1.32-3.06h0l23-53h0l1.33-3.06h0l23-53h0l1.33-3.06h0ZM104.11,508.4l-27.76-16,23-53,27.76,16ZM134.61,526l-27.76-16,23-53,27.76,16Z"/><path class="cls-13" d="M14,460.22h0l10.13,5.85,3.92-1.56-12.73-7.35,23-53,27.76,16L50.79,455.45l4.14-1.64,13.88-32.07L96,437.44l5-2,22.59-52.19,27.76,16-8.42,19.46,4.13-1.65,7-16.23,13.77,7.95,3.92-1.56-16.36-9.45h0l-2.74-1.58h0l-27.76-16h0l-2.74-1.58h0l-27.76-16h0L91.68,361h0l-30.5-17.61-1.33,3.06h0l-23,53h0l-1.33,3.06h0l-23,53h0l-1.32,3.06h0Zm79.07-94.56,27.76,16-22.95,53-27.76-16Zm-30.5-17.61,27.77,16-23,53-27.76-16Z"/><polygon class="cls-14" points="459.2 648.78 334.46 576.76 237.32 597.12 264.44 612.77 242.67 612.77 242.67 618.97 275.17 618.97 319.29 644.45 297.83 644.45 297.83 650.64 330.02 650.64 362.06 669.14 459.2 648.78"/><path class="cls-6" d="M301.6,645.35c2.09,1.21,2.11,3.17,0,4.38a8.33,8.33,0,0,1-7.56,0c-2.09-1.21-2.1-3.17,0-4.38A8.33,8.33,0,0,1,301.6,645.35Z"/><rect class="cls-6" x="292.48" y="615.21" width="10.69" height="32.33"/><path class="cls-6" d="M246.44,613.68c2.09,1.21,2.1,3.17,0,4.38a8.33,8.33,0,0,1-7.56,0c-2.1-1.21-2.11-3.17,0-4.38A8.35,8.35,0,0,1,246.44,613.68Z"/><rect class="cls-6" x="237.32" y="583.54" width="10.69" height="32.33"/><path class="cls-7" d="M232.83,439.84l-49.9,115.23,124.74,72,49.9-115.23Z"/><polygon class="cls-8" points="348.13 509.08 223.38 437.06 232.83 439.84 357.57 511.86 348.13 509.08"/><path class="cls-15" d="M226.13,438.64l-2.74-1.58-49.9,115.23,2.74,1.58,122,70.44L346.8,512.14l1.33-3.06Z"/><polygon class="cls-10" points="333.99 500.92 348.13 509.08 298.23 624.31 186.35 559.72 333.99 500.92"/><polygon class="cls-11" points="357.57 511.86 307.67 627.09 298.23 624.31 348.13 509.08 357.57 511.86"/><path class="cls-12" d="M345.39,507.49h0L334,500.92l-3.92,1.56,14,8.08-23,53-27.76-16,15.93-36.79-4.13,1.65L290.6,546l-27.76-16,.36-.83-5,2,.57.32-23,53-27.76-16,9.07-20.95L213,549.1l-7.68,17.73-15-8.68-3.93,1.56L204,569.89h0l2.74,1.58h0l27.77,16h0l2.74,1.58h0l27.76,16h0l2.74,1.59h0l30.5,17.62,1.33-3.07h0l23-53h0l1.32-3.06h0l23-53h0l1.33-3.06h0Zm-79.07,94.56-27.76-16,23-53,27.76,16Zm30.5,17.61-27.76-16,23-53,27.76,16Z"/><path class="cls-13" d="M176.23,553.87h0l10.13,5.85,3.93-1.56-12.73-7.35,23-53,27.76,16L213,549.1l4.13-1.64L231,515.39l27.19,15.71,5-2,22.6-52.19,27.76,16-8.42,19.46,4.13-1.65,7-16.23,13.77,8,3.92-1.56-16.36-9.45h0l-2.74-1.58h0l-27.76-16h0l-2.74-1.58h0l-27.76-16h0l-2.74-1.59h0l-30.5-17.61-1.33,3.06h0l-22.95,53h0l-1.32,3.06h0l-23,53h0l-1.33,3.06h0Zm79.07-94.56,27.76,16-23,53-27.76-16ZM224.8,441.7l27.76,16-22.95,53-27.77-16Z"/><polygon class="cls-16" points="641.66 489.1 608.94 507.99 608.86 393.76 641.66 374.82 641.66 489.1"/><polygon class="cls-16" points="459.23 457.54 492.03 476.48 492.01 387.66 459.24 368.74 459.23 457.54"/><polygon class="cls-16" points="384.14 414.19 416.95 433.13 416.93 344.31 384.12 325.37 384.14 414.19"/><polygon class="cls-6" points="412.28 280.27 426.05 288.23 426.05 224.81 470.16 250.27 470.16 313.69 483.93 321.64 483.93 237.83 412.28 196.46 412.28 280.27"/><polygon class="cls-16" points="437.35 281.7 470.16 300.64 470.16 250.27 437.35 231.33 437.35 281.7"/><polygon class="cls-17" points="460.67 168.53 532.32 209.9 483.93 237.83 412.28 196.46 460.67 168.53"/><polygon class="cls-18" points="532.32 209.9 483.93 237.83 483.93 321.64 532.32 209.9"/><path class="cls-19" d="M410.38,50,322.17,253.69,542.7,381,630.91,177.3Zm1.9,230.29V196.46l48.39-27.93,71.65,41.36L483.93,321.64Z"/><polygon class="cls-17" points="571.45 104.58 643.1 145.95 609.85 165.14 538.2 123.77 571.45 104.58"/><polygon class="cls-18" points="643.1 191.35 643.1 145.95 609.85 165.14 630.91 177.3 643.1 191.35"/><polygon class="cls-6" points="641.66 489.1 652.97 495.6 652.97 368.3 641.66 374.82 641.66 489.1"/><polygon class="cls-8" points="459.23 457.54 492.03 476.48 492.03 489.53 447.93 464.06 459.23 457.54"/><polygon class="cls-20" points="459.23 457.54 459.24 368.74 447.9 362.19 447.93 464.06 459.23 457.54"/><path class="cls-21" d="M322.17,253.69V431.94L542.7,559.27V381ZM417,446.18l-44.13-25.47V318.85l44.11,25.46ZM492,489.53l-44.1-25.47,0-101.87L492,387.66Z"/><polygon class="cls-8" points="384.14 414.19 416.95 433.13 416.95 446.18 372.84 420.71 384.14 414.19"/><polygon class="cls-20" points="384.14 414.19 384.12 325.37 372.82 318.85 372.82 420.71 384.14 414.19"/><polygon class="cls-17" points="437.35 281.7 470.16 300.64 470.16 313.69 426.05 288.23 437.35 281.7"/><polygon class="cls-20" points="437.35 281.7 437.35 231.33 426.05 224.81 426.05 288.23 437.35 281.7"/><polygon class="cls-22" points="674.47 304.94 697.99 318.52 610.87 368.81 587.35 355.23 674.47 304.94"/><polygon class="cls-8" points="610.87 385.52 587.35 371.94 587.35 355.23 610.87 368.81 610.87 385.52"/><polygon class="cls-23" points="697.99 318.52 697.99 335.22 610.87 385.52 610.87 368.81 697.99 318.52"/><path class="cls-24" d="M630.91,177.3,542.7,381V559.27L608.94,521l-.08-127.26L653,368.3V495.6l66.16-38.19V279.16ZM698,335.22l-87.12,50.3-23.52-13.58V355.23l87.12-50.29L698,318.52Z"/><polygon class="cls-25" points="448.64 272.58 470.16 285.01 470.16 250.27 448.64 237.85 448.64 272.58"/><polygon class="cls-25" points="492.02 413.68 492.01 387.66 470.5 375.24 470.5 401.26 492.02 413.68"/><polygon class="cls-25" points="470.5 408.72 470.39 448.35 491.91 460.78 492.02 421.14 470.5 408.72"/><polygon class="cls-25" points="416.93 370.33 416.93 344.31 395.41 331.89 395.41 357.9 416.93 370.33"/><polygon class="cls-25" points="395.42 365.37 395.42 405.07 416.94 417.5 416.94 377.79 395.42 365.37"/><path class="cls-26" d="M847.26,559.27A145.54,145.54,0,0,0,855,516.91l-45.76,26.43a48.23,48.23,0,0,1-48.19,0l-95.38-55.07L653,495.6l-11.31-6.5L608.94,508v13l-9.43,5.44,56.81,32.81Z"/></g></g></svg>