<?xml version="1.0" encoding="UTF-8"?>
<!DOCTYPE svg PUBLIC "-//W3C//DTD SVG 1.1//EN" "http://www.w3.org/Graphics/SVG/1.1/DTD/svg11.dtd">
<!-- Creator: CorelDRAW 2018 (64 Bit Versão de avaliação) -->
<svg xmlns="http://www.w3.org/2000/svg" xml:space="preserve" width="300px" height="300px" version="1.1" style="shape-rendering:geometricPrecision; text-rendering:geometricPrecision; image-rendering:optimizeQuality; fill-rule:evenodd; clip-rule:evenodd"
viewBox="0 0 28.48 28.48"
 xmlns:xlink="http://www.w3.org/1999/xlink">
 <defs>
  <style type="text/css">
   <![CDATA[
    .fil4 {fill:none}
    .fil1 {fill:#282B2D;fill-rule:nonzero}
    .fil0 {fill:#3096FC;fill-rule:nonzero}
    .fil2 {fill:#30C9FC;fill-rule:nonzero}
    .fil3 {fill:#383838;fill-rule:nonzero}
   ]]>
  </style>
 </defs>
 <g id="Camada_x0020_1">
  <metadata id="CorelCorpID_0Corel-Layer"/>
  <g id="_1670789869840">
   <g>
    <path class="fil0" d="M10.87 5.61c-0.71,0 -1.35,0.45 -1.59,1.12 -0.07,0.22 0.04,0.46 0.26,0.54 0.14,0.05 0.29,0.01 0.41,-0.08l1.76 2.12 0 0.51c0,0.23 0.19,0.42 0.42,0.42 0.24,0 0.43,-0.19 0.43,-0.42l0 -2.53c0,-0.92 -0.76,-1.68 -1.69,-1.68z"/>
    <path class="fil1" d="M9.61 6.45c-0.77,0 -1.5,0.3 -2.07,0.85l-5.4 5.89 0.62 0.57 0.15 -0.16 8.8 2.42 0 0.11c0,0.24 0.19,0.42 0.42,0.42 0.24,0 0.43,-0.18 0.43,-0.42l0 -6.73c0,-1.63 -1.33,-2.95 -2.95,-2.95z"/>
    <path class="fil0" d="M17.61 5.61c0.71,0 1.35,0.45 1.58,1.12 0.08,0.22 -0.03,0.46 -0.25,0.54 -0.15,0.05 -0.3,0.01 -0.41,-0.08l-1.77 2.12 0 0.51c0,0.23 -0.18,0.42 -0.42,0.42 -0.23,0 -0.42,-0.19 -0.42,-0.42l0 -2.53c0,-0.92 0.76,-1.68 1.69,-1.68z"/>
    <path class="fil1" d="M18.87 6.45c0.77,0 1.5,0.3 2.07,0.85l5.4 5.9 -0.62 0.56 -0.15 -0.16 -8.81 2.42 0 0.11c0,0.24 -0.18,0.42 -0.42,0.42 -0.23,0 -0.42,-0.18 -0.42,-0.42l0 -6.73c0,-1.63 1.32,-2.95 2.95,-2.95z"/>
    <path class="fil2" d="M11.29 16.98c0,2.55 -2.07,4.63 -4.63,4.63 -2.56,0 -4.63,-2.08 -4.63,-4.63 0,-2.56 2.07,-4.64 4.63,-4.64 2.56,0 4.63,2.08 4.63,4.64z"/>
    <path class="fil3" d="M6.66 11.08c-3.25,0 -5.89,2.65 -5.89,5.9 0,3.25 2.64,5.89 5.89,5.89 3.25,0 5.9,-2.64 5.9,-5.89 0,-3.25 -2.65,-5.9 -5.9,-5.9zm0 10.11c-2.32,0 -4.21,-1.89 -4.21,-4.21 0,-2.33 1.89,-4.21 4.21,-4.21 2.32,0 4.21,1.88 4.21,4.21 0,2.32 -1.89,4.21 -4.21,4.21z"/>
    <path class="fil3" d="M10.8 11.48l3.53 -0.29 3.2 0.29 0.14 0.02c-0.82,0.8 -1.33,1.92 -1.33,3.16l0 1.47 -4.21 0 0 -1.47c0,-1.24 -0.5,-2.36 -1.32,-3.16l-0.01 -0.02z"/>
    <path class="fil2" d="M26.45 16.98c0,2.55 -2.08,4.63 -4.63,4.63 -2.56,0 -4.63,-2.08 -4.63,-4.63 0,-2.56 2.07,-4.64 4.63,-4.64 2.55,0 4.63,2.08 4.63,4.64z"/>
    <path class="fil3" d="M21.82 11.08c-3.25,0 -5.9,2.65 -5.9,5.9 0,3.25 2.65,5.89 5.9,5.89 3.25,0 5.89,-2.64 5.89,-5.89 0,-3.25 -2.64,-5.9 -5.89,-5.9zm0 10.11c-2.33,0 -4.21,-1.89 -4.21,-4.21 0,-2.33 1.88,-4.21 4.21,-4.21 2.32,0 4.21,1.88 4.21,4.21 0,2.32 -1.89,4.21 -4.21,4.21z"/>
    <polygon class="fil0" points="10.87,11.5 17.61,11.5 17.61,10.66 10.87,10.66 "/>
   </g>
   <rect class="fil4" width="28.48" height="28.48"/>
  </g>
 </g>
</svg>
