<?xml version="1.0" encoding="UTF-8"?>
<!DOCTYPE svg PUBLIC "-//W3C//DTD SVG 1.1//EN" "http://www.w3.org/Graphics/SVG/1.1/DTD/svg11.dtd">
<!-- Creator: CorelDRAW 2018 (64 Bit Versão de avaliação) -->
<svg xmlns="http://www.w3.org/2000/svg" xml:space="preserve" width="300px" height="300px" version="1.1" style="shape-rendering:geometricPrecision; text-rendering:geometricPrecision; image-rendering:optimizeQuality; fill-rule:evenodd; clip-rule:evenodd"
viewBox="0 0 15.33 15.33"
 xmlns:xlink="http://www.w3.org/1999/xlink">
 <defs>
  <style type="text/css">
   <![CDATA[
    .str0 {stroke:#282B2D;stroke-width:0.33;stroke-miterlimit:22.9256}
    .fil5 {fill:none}
    .fil3 {fill:#126EC9}
    .fil2 {fill:#3096FC}
    .fil1 {fill:#30C9FC}
    .fil0 {fill:#383838}
    .fil4 {fill:#3096FC;fill-rule:nonzero}
   ]]>
  </style>
 </defs>
 <g id="Camada_x0020_1">
  <metadata id="CorelCorpID_0Corel-Layer"/>
  <g id="_1670941420736">
   <g>
    <rect class="fil0" transform="matrix(2.48927E-13 1.40844 -6.67333 2.64845E-14 14.2617 12.9532)" width="0.52" height="1.98"/>
    <g>
     <path class="fil1 str0" d="M2.73 6.17c0.82,0 1.64,0 2.47,0 -0.03,0.27 -0.06,0.55 -0.09,0.84 -0.03,0.29 -0.06,0.59 -0.09,0.9 -0.88,0 -1.76,0 -2.64,0 0.06,-0.31 0.12,-0.61 0.18,-0.9 0.06,-0.29 0.11,-0.57 0.17,-0.84z"/>
     <path class="fil2 str0" d="M2.38 7.91c0.88,0 1.76,0 2.64,0 -0.03,0.32 -0.06,0.64 -0.1,0.97 -0.03,0.34 -0.07,0.68 -0.1,1.04 -0.95,0 -1.9,0 -2.85,0 0.07,-0.36 0.14,-0.7 0.21,-1.04 0.07,-0.33 0.13,-0.65 0.2,-0.97z"/>
     <path class="fil3 str0" d="M1.97 9.92c0.95,0 1.9,0 2.85,0 -0.04,0.36 -0.08,0.74 -0.12,1.12 -0.04,0.4 -0.08,0.81 -0.12,1.22 -1.03,0 -2.05,0 -3.08,0 0.08,-0.41 0.17,-0.82 0.25,-1.22 0.07,-0.38 0.15,-0.76 0.22,-1.12z"/>
     <path class="fil1 str0" d="M5.2 6.17c0.82,0 1.64,0 2.46,0 0,0.27 0,0.55 0,0.84 0,0.29 0,0.59 0,0.9 -0.88,0 -1.76,0 -2.64,0 0.03,-0.31 0.06,-0.61 0.09,-0.9 0.03,-0.29 0.06,-0.57 0.09,-0.84z"/>
     <path class="fil2 str0" d="M5.02 7.91c0.88,0 1.76,0 2.64,0 0,0.32 0,0.64 0,0.97 0,0.34 0,0.68 0,1.04 -0.95,0 -1.9,0 -2.84,0 0.03,-0.36 0.07,-0.7 0.1,-1.04 0.04,-0.33 0.07,-0.65 0.1,-0.97z"/>
     <path class="fil3 str0" d="M4.82 9.92c0.94,0 1.89,0 2.84,0 0,0.36 0,0.74 0,1.12 0,0.4 0,0.81 0,1.22 -1.03,0 -2.05,0 -3.08,0 0.04,-0.41 0.08,-0.82 0.12,-1.22 0.04,-0.38 0.08,-0.76 0.12,-1.12z"/>
     <path class="fil1 str0" d="M7.66 6.17c0.82,0 1.64,0 2.47,0 0.03,0.27 0.05,0.55 0.08,0.84 0.03,0.29 0.06,0.59 0.09,0.9 -0.88,0 -1.76,0 -2.64,0 0,-0.31 0,-0.61 0,-0.9 0,-0.29 0,-0.57 0,-0.84z"/>
     <path class="fil2 str0" d="M7.66 7.91c0.88,0 1.76,0 2.64,0 0.04,0.32 0.07,0.64 0.1,0.97 0.04,0.34 0.07,0.68 0.11,1.04 -0.95,0 -1.9,0 -2.85,0 0,-0.36 0,-0.7 0,-1.04 0,-0.33 0,-0.65 0,-0.97z"/>
     <path class="fil3 str0" d="M7.66 9.92c0.95,0 1.9,0 2.85,0 0.03,0.36 0.07,0.74 0.11,1.12 0.04,0.4 0.08,0.81 0.12,1.22 -1.03,0 -2.05,0 -3.08,0 0,-0.41 0,-0.82 0,-1.22 0,-0.38 0,-0.76 0,-1.12z"/>
     <path class="fil1 str0" d="M10.13 6.17c0.82,0 1.64,0 2.46,0 0.06,0.27 0.12,0.55 0.17,0.84 0.06,0.29 0.12,0.59 0.19,0.9 -0.89,0 -1.77,0 -2.65,0 -0.03,-0.31 -0.06,-0.61 -0.09,-0.9 -0.03,-0.29 -0.05,-0.57 -0.08,-0.84z"/>
     <path class="fil2 str0" d="M10.3 7.91c0.88,0 1.76,0 2.65,0 0.06,0.32 0.12,0.64 0.19,0.97 0.07,0.34 0.14,0.68 0.21,1.04 -0.95,0 -1.9,0 -2.84,0 -0.04,-0.36 -0.07,-0.7 -0.11,-1.04 -0.03,-0.33 -0.06,-0.65 -0.1,-0.97z"/>
     <path class="fil3 str0" d="M10.51 9.92c0.94,0 1.89,0 2.84,0 0.07,0.36 0.15,0.74 0.23,1.12 0.08,0.4 0.16,0.81 0.24,1.22 -1.03,0 -2.05,0 -3.08,0 -0.04,-0.41 -0.08,-0.82 -0.12,-1.22 -0.04,-0.38 -0.08,-0.76 -0.11,-1.12z"/>
    </g>
    <polygon class="fil4" points="4.92,3.59 4.32,2.99 5.67,1.64 6.26,2.24 "/>
    <polygon class="fil4" points="8.91,2.24 9.51,1.64 10.86,2.99 10.26,3.59 "/>
    <polygon class="fil4" points="8.02,2.9 7.17,2.9 7.17,4.81 8.02,4.81 "/>
   </g>
   <rect class="fil5" width="15.33" height="15.33"/>
  </g>
 </g>
</svg>
