<?xml version="1.0" encoding="UTF-8"?>
<!DOCTYPE svg PUBLIC "-//W3C//DTD SVG 1.1//EN" "http://www.w3.org/Graphics/SVG/1.1/DTD/svg11.dtd">
<!-- Creator: CorelDRAW 2018 (64 Bit Versão de avaliação) -->
<svg xmlns="http://www.w3.org/2000/svg" xml:space="preserve" width="298px" height="50px" version="1.1" style="shape-rendering:geometricPrecision; text-rendering:geometricPrecision; image-rendering:optimizeQuality; fill-rule:evenodd; clip-rule:evenodd"
viewBox="0 0 66.68 11.19"
 xmlns:xlink="http://www.w3.org/1999/xlink">
 <defs>
  <style type="text/css">
   <![CDATA[
    .fil0 {fill:#3096FC;fill-rule:nonzero}
    .fil1 {fill:white;fill-rule:nonzero}
   ]]>
  </style>
 </defs>
 <g id="Camada_x0020_1">
  <metadata id="CorelCorpID_0Corel-Layer"/>
  <g id="_2257332582752">
   <path class="fil0" d="M6.36 5.09c-0.19,0 -0.36,0.04 -0.52,0.11 -0.16,0.07 -0.3,0.18 -0.43,0.3 -0.12,0.13 -0.22,0.28 -0.29,0.45 -0.07,0.16 -0.1,0.34 -0.1,0.54 0,0.19 0.03,0.37 0.1,0.54 0.07,0.17 0.17,0.31 0.29,0.44 0.13,0.13 0.27,0.23 0.43,0.3 0.16,0.08 0.33,0.11 0.52,0.11 0.19,0 0.36,-0.03 0.52,-0.11 0.16,-0.07 0.3,-0.17 0.43,-0.3 0.12,-0.13 0.22,-0.27 0.29,-0.44 0.07,-0.17 0.11,-0.35 0.11,-0.54 0,-0.2 -0.04,-0.38 -0.11,-0.54 -0.07,-0.17 -0.17,-0.32 -0.29,-0.45 -0.13,-0.12 -0.27,-0.23 -0.43,-0.3 -0.16,-0.07 -0.33,-0.11 -0.52,-0.11zm0 3.99c-0.35,0 -0.68,-0.07 -0.99,-0.21 -0.31,-0.13 -0.57,-0.32 -0.8,-0.55 -0.23,-0.24 -0.42,-0.51 -0.55,-0.82 -0.13,-0.31 -0.2,-0.65 -0.2,-1.01 0,-0.36 0.07,-0.69 0.2,-1.01 0.13,-0.32 0.32,-0.59 0.55,-0.82 0.23,-0.24 0.49,-0.42 0.8,-0.56 0.31,-0.14 0.64,-0.2 0.99,-0.2 0.35,0 0.68,0.06 0.99,0.2 0.31,0.14 0.58,0.32 0.81,0.56 0.23,0.23 0.41,0.5 0.54,0.82 0.13,0.32 0.2,0.65 0.2,1.01 0,0.36 -0.07,0.7 -0.2,1.01 -0.13,0.31 -0.31,0.58 -0.54,0.82 -0.23,0.23 -0.5,0.42 -0.81,0.55 -0.31,0.14 -0.64,0.21 -0.99,0.21z"/>
   <polygon class="fil0" points="9.6,1.58 10.32,2.3 8.7,3.92 7.98,3.2 "/>
   <polygon class="fil0" points="4.81,3.2 4.09,3.92 2.47,2.3 3.19,1.58 "/>
   <polygon class="fil0" points="5.88,2.41 6.89,2.41 6.89,0.12 5.88,0.12 "/>
   <path class="fil0" d="M11.08 4.11c-0.31,0.14 -0.58,0.32 -0.81,0.57 -0.24,0.24 -0.42,0.52 -0.56,0.83 -0.13,0.32 -0.2,0.66 -0.2,1.02l0 2.55 1.19 0 0 -2.55c0,-0.2 0.03,-0.39 0.11,-0.56 0.07,-0.17 0.17,-0.32 0.3,-0.45 0.12,-0.14 0.27,-0.24 0.43,-0.31 0.17,-0.08 0.35,-0.11 0.55,-0.11l0.58 -0.01 0 -1.18 -0.58 0c-0.36,0 -0.7,0.06 -1.01,0.2z"/>
   <path class="fil0" d="M1.59 4.11c0.31,0.14 0.58,0.32 0.82,0.57 0.23,0.24 0.42,0.52 0.55,0.83 0.14,0.32 0.21,0.66 0.21,1.02l0 2.55 -1.19 0 0 -2.55c0,-0.2 -0.04,-0.39 -0.12,-0.56 -0.07,-0.17 -0.17,-0.32 -0.29,-0.45 -0.13,-0.14 -0.27,-0.24 -0.44,-0.31 -0.17,-0.08 -0.35,-0.11 -0.54,-0.11l-0.59 -0.01 0 -1.18 0.59 0c0.35,0 0.69,0.06 1,0.2z"/>
   <polygon class="fil0" points="2.06,11.19 10.68,11.19 10.68,10 2.06,10 "/>
   <path class="fil1" d="M63.67 4.74c-0.92,0 -1.67,-0.75 -1.67,-1.67 0,-0.92 0.75,-1.67 1.67,-1.67 0.93,0 1.68,0.75 1.68,1.67 0,0.92 -0.75,1.67 -1.68,1.67zm2.78 -2.86c-0.16,-0.37 -0.38,-0.7 -0.65,-0.98 -0.27,-0.27 -0.59,-0.5 -0.95,-0.65 -0.37,-0.17 -0.76,-0.25 -1.18,-0.25 -0.41,0 -0.81,0.08 -1.17,0.25 -0.36,0.15 -0.69,0.38 -0.96,0.65 -0.27,0.28 -0.48,0.61 -0.64,0.98 -0.16,0.37 -0.24,0.77 -0.24,1.2 0,0.42 0.08,0.82 0.24,1.19 0.16,0.37 0.37,0.69 0.64,0.97 0.28,0.27 0.6,0.5 0.96,0.65 0.36,0.17 0.76,0.25 1.17,0.25 0.42,0 0.81,-0.08 1.18,-0.25 0.36,-0.15 0.68,-0.38 0.95,-0.65 0.27,-0.28 0.49,-0.6 0.65,-0.97 0.15,-0.37 0.23,-0.77 0.23,-1.19 0,-0.43 -0.08,-0.83 -0.23,-1.2z"/>
   <path class="fil1" d="M38.73 1.96c-0.16,-0.37 -0.37,-0.7 -0.65,-0.98 -0.27,-0.28 -0.59,-0.5 -0.95,-0.67 -0.34,-0.14 -0.7,-0.22 -1.08,-0.23l0 0 -0.28 0 0 0c-0.38,0.01 -0.74,0.09 -1.08,0.23 -0.36,0.17 -0.68,0.39 -0.96,0.67 -0.27,0.28 -0.49,0.61 -0.65,0.98 -0.16,0.37 -0.24,0.77 -0.24,1.2l0 2.98 1.4 0 0 -2.98c0,-0.24 0.04,-0.46 0.13,-0.66 0.09,-0.2 0.2,-0.38 0.35,-0.53 0.15,-0.16 0.32,-0.28 0.51,-0.37 0.2,-0.08 0.41,-0.13 0.64,-0.13l0.04 0 0.04 0c0.23,0 0.44,0.05 0.63,0.13 0.2,0.09 0.37,0.21 0.52,0.37 0.14,0.15 0.26,0.33 0.35,0.53 0.08,0.2 0.13,0.42 0.13,0.66l0 2.98 1.39 0 0 -2.98c0,-0.43 -0.08,-0.83 -0.24,-1.2z"/>
   <path class="fil1" d="M54.68 0.25c-0.37,0.15 -0.7,0.37 -0.98,0.64 -0.28,0.28 -0.51,0.6 -0.67,0.96 -0.14,0.34 -0.22,0.7 -0.23,1.08l-0.01 0 0 0.28 0.01 0c0.01,0.38 0.09,0.74 0.23,1.08 0.16,0.36 0.39,0.68 0.67,0.96 0.28,0.27 0.61,0.49 0.98,0.64 0.37,0.16 0.77,0.24 1.2,0.24l3.11 0 0 -1.39 -3.11 0c-0.24,0 -0.46,-0.05 -0.66,-0.13 -0.2,-0.09 -0.38,-0.2 -0.54,-0.35 -0.15,-0.15 -0.27,-0.32 -0.36,-0.52 -0.09,-0.19 -0.13,-0.4 -0.13,-0.63l0 -0.04 0 -0.04c0,-0.23 0.04,-0.44 0.13,-0.64 0.09,-0.19 0.21,-0.36 0.36,-0.51 0.16,-0.15 0.34,-0.26 0.54,-0.35 0.2,-0.08 0.42,-0.13 0.66,-0.13l3.11 0 0 -1.39 -3.11 0c-0.43,0 -0.83,0.07 -1.2,0.24z"/>
   <path class="fil1" d="M25.3 4.26c0.16,0.37 0.38,0.69 0.65,0.98 0.28,0.28 0.6,0.5 0.96,0.66 0.34,0.15 0.7,0.23 1.08,0.24l0 0 0.28 0 0 0c0.38,-0.01 0.74,-0.09 1.07,-0.24 0.37,-0.16 0.69,-0.38 0.96,-0.66 0.28,-0.29 0.49,-0.61 0.65,-0.98 0.16,-0.37 0.24,-0.77 0.24,-1.2l0 -2.98 -1.39 0 0 2.98c0,0.24 -0.05,0.46 -0.13,0.66 -0.09,0.2 -0.21,0.38 -0.35,0.53 -0.15,0.16 -0.32,0.28 -0.52,0.37 -0.19,0.08 -0.41,0.13 -0.63,0.13l-0.04 0 -0.04 0c-0.23,0 -0.44,-0.05 -0.64,-0.13 -0.19,-0.09 -0.37,-0.21 -0.51,-0.37 -0.15,-0.15 -0.26,-0.33 -0.35,-0.53 -0.09,-0.2 -0.13,-0.42 -0.13,-0.66l0 -2.98 -1.4 0 0 2.98c0,0.43 0.08,0.83 0.24,1.2z"/>
   <path class="fil1" d="M49.65 2.04c-0.13,-0.19 -0.3,-0.33 -0.51,-0.44 -0.2,-0.11 -0.42,-0.17 -0.66,-0.17 -0.24,0 -0.46,0.06 -0.66,0.17 -0.2,0.11 -0.36,0.25 -0.49,0.44l2.32 0zm1.56 1.39l-4.09 0c0.01,0.35 0.15,0.65 0.41,0.91 0.26,0.24 0.58,0.37 0.95,0.37 0.34,0 0.64,-0.11 0.9,-0.33 0.14,-0.11 0.25,-0.24 0.33,-0.4l1.24 0.64c-0.17,0.33 -0.39,0.61 -0.68,0.85 -0.52,0.42 -1.11,0.64 -1.79,0.64 -0.38,0 -0.74,-0.08 -1.08,-0.22 -0.33,-0.14 -0.62,-0.33 -0.87,-0.57 -0.24,-0.24 -0.44,-0.53 -0.58,-0.86 -0.15,-0.33 -0.22,-0.68 -0.22,-1.05l0 -0.73c0.01,-0.36 0.08,-0.71 0.23,-1.03 0.15,-0.32 0.34,-0.6 0.59,-0.84 0.24,-0.24 0.53,-0.43 0.87,-0.57 0.33,-0.14 0.69,-0.21 1.06,-0.21 0.32,0 0.63,0.06 0.93,0.16 0.29,0.11 0.56,0.25 0.8,0.44 0.25,0.19 0.45,0.41 0.62,0.67 0.17,0.26 0.29,0.54 0.36,0.84l0.02 0.09 0 1.2z"/>
   <path class="fil1" d="M19.61 3.65l0 0zm2.44 -1.17l-0.01 -0.01c-0.01,0 -0.02,0 -0.05,0 -0.04,-0.01 -0.08,-0.02 -0.12,-0.03l-0.08 -0.01c-0.08,-0.01 -0.15,-0.01 -0.22,-0.01l-1.51 0c-0.03,-0.01 -0.05,-0.02 -0.07,-0.03 -0.06,-0.03 -0.12,-0.06 -0.17,-0.1 -0.04,-0.04 -0.07,-0.09 -0.1,-0.15 -0.02,-0.05 -0.03,-0.11 -0.03,-0.17l0 -0.04c0,-0.07 0.01,-0.12 0.03,-0.17 0.03,-0.06 0.06,-0.11 0.1,-0.15 0.05,-0.04 0.11,-0.08 0.17,-0.1 0.05,-0.03 0.12,-0.04 0.19,-0.04l3.23 0 0 -1.37 -3.25 0c-1.02,0 -1.85,0.83 -1.85,1.85 0,0.8 0.51,1.51 1.27,1.76l0.01 0c0.02,0.01 0.04,0.01 0.06,0.02l0.04 0.01c0.02,0 0.03,0.01 0.05,0.01l0.02 0.01c0.03,0 0.06,0.01 0.1,0.01l0.1 0.02c0.08,0.01 0.15,0.01 0.22,0.01l1.51 0c0.03,0.01 0.05,0.02 0.07,0.03 0.06,0.02 0.12,0.06 0.16,0.1 0.05,0.04 0.08,0.09 0.1,0.14 0.03,0.06 0.04,0.12 0.04,0.18l0 0.04c0,0.06 -0.01,0.12 -0.04,0.17 -0.02,0.06 -0.05,0.1 -0.1,0.14 -0.04,0.05 -0.1,0.09 -0.16,0.11 -0.06,0.03 -0.12,0.04 -0.19,0.04l-3.24 0 0 1.37 3.26 0c1.02,0 1.85,-0.83 1.85,-1.85 0,-0.84 -0.57,-1.58 -1.39,-1.79z"/>
   <path class="fil1" d="M43.27 3.09c0,-0.41 -0.33,-0.74 -0.74,-0.74 -0.41,0 -0.75,0.33 -0.75,0.74 0,0.41 0.34,0.75 0.75,0.75 0.41,0 0.74,-0.34 0.74,-0.75z"/>
   <polygon class="fil0" points="18.72,11.05 18.53,11.05 18.53,9.79 18.02,9.79 18.02,9.61 19.23,9.61 19.23,9.79 18.72,9.79 "/>
   <polygon class="fil0" points="21.25,10.89 21.25,11.05 20.16,11.05 20.16,9.61 21.2,9.61 21.2,9.77 20.35,9.77 20.35,10.23 21.04,10.23 21.04,10.39 20.35,10.39 20.35,10.89 "/>
   <path class="fil0" d="M23.18 9.86c-0.08,-0.04 -0.18,-0.06 -0.29,-0.06 -0.27,0 -0.55,0.21 -0.55,0.53 0,0.32 0.28,0.53 0.55,0.53 0.17,0 0.33,-0.08 0.42,-0.2l0.14 0.14c-0.14,0.16 -0.34,0.26 -0.56,0.26 -0.4,0 -0.75,-0.33 -0.75,-0.73 0,-0.4 0.35,-0.73 0.75,-0.73 0.17,0 0.33,0.05 0.49,0.15l0 0.23 -0.17 0 -0.03 -0.12z"/>
   <polygon class="fil0" points="25.4,10.22 25.4,9.61 25.6,9.61 25.6,11.05 25.4,11.05 25.4,10.4 24.58,10.4 24.58,11.05 24.38,11.05 24.38,9.61 24.58,9.61 24.58,10.22 "/>
   <polygon class="fil0" points="27.55,9.61 27.75,9.61 27.75,11.05 27.38,11.05 26.78,9.78 26.73,9.78 26.73,11.05 26.54,11.05 26.54,9.61 26.91,9.61 27.51,10.89 27.55,10.89 "/>
   <path class="fil0" d="M28.87 10.33c0,0.32 0.28,0.53 0.55,0.53 0.32,0 0.55,-0.26 0.55,-0.53 0,-0.32 -0.29,-0.53 -0.55,-0.53 -0.31,0 -0.55,0.26 -0.55,0.53zm1.3 0c0,0.4 -0.35,0.73 -0.75,0.73 -0.4,0 -0.75,-0.33 -0.75,-0.73 0,-0.4 0.35,-0.73 0.75,-0.73 0.4,0 0.75,0.33 0.75,0.73z"/>
   <polygon class="fil0" points="32.15,10.87 32.15,11.05 31.09,11.05 31.09,9.61 31.29,9.61 31.29,10.87 "/>
   <path class="fil0" d="M33.18 10.33c0,0.32 0.28,0.53 0.55,0.53 0.32,0 0.55,-0.26 0.55,-0.53 0,-0.32 -0.29,-0.53 -0.55,-0.53 -0.31,0 -0.55,0.26 -0.55,0.53zm1.3 0c0,0.4 -0.35,0.73 -0.75,0.73 -0.4,0 -0.75,-0.33 -0.75,-0.73 0,-0.4 0.35,-0.73 0.75,-0.73 0.4,0 0.75,0.33 0.75,0.73z"/>
   <path class="fil0" d="M36.12 10.86c0.14,0 0.27,-0.05 0.36,-0.14l0 -0.32 -0.47 0 0 -0.18 0.67 0 0 0.58c-0.14,0.16 -0.34,0.26 -0.56,0.26 -0.4,0 -0.75,-0.33 -0.75,-0.73 0,-0.4 0.35,-0.73 0.75,-0.73 0.17,0 0.33,0.05 0.49,0.15l0 0.23 -0.18 0 -0.02 -0.12c-0.08,-0.04 -0.18,-0.06 -0.29,-0.06 -0.27,0 -0.55,0.21 -0.55,0.53 0,0.32 0.28,0.53 0.55,0.53z"/>
   <polygon class="fil0" points="38.72,9.61 38.92,9.61 38.43,10.5 38.33,10.5 38.33,11.05 38.14,11.05 38.14,10.5 38.03,10.5 37.55,9.61 37.75,9.61 38.13,10.3 38.34,10.3 "/>
  </g>
 </g>
</svg>
