<?xml version="1.0" encoding="UTF-8"?>
<!DOCTYPE svg PUBLIC "-//W3C//DTD SVG 1.1//EN" "http://www.w3.org/Graphics/SVG/1.1/DTD/svg11.dtd">
<!-- Creator: CorelDRAW 2018 (64 Bit Versão de avaliação) -->
<svg xmlns="http://www.w3.org/2000/svg" xml:space="preserve" width="300px" height="1.05833E+06px" version="1.1" style="shape-rendering:geometricPrecision; text-rendering:geometricPrecision; image-rendering:optimizeQuality; fill-rule:evenodd; clip-rule:evenodd"
viewBox="0 0 16.44 16.44"
 xmlns:xlink="http://www.w3.org/1999/xlink">
 <defs>
  <style type="text/css">
   <![CDATA[
    .fil4 {fill:none}
    .fil1 {fill:#282B2D;fill-rule:nonzero}
    .fil3 {fill:#3096FC;fill-rule:nonzero}
    .fil0 {fill:#30C9FC;fill-rule:nonzero}
    .fil2 {fill:#383838;fill-rule:nonzero}
   ]]>
  </style>
 </defs>
 <g id="Camada_x0020_1">
  <metadata id="CorelCorpID_0Corel-Layer"/>
  <g id="_1670757398624">
   <g>
    <path class="fil0" d="M12.6 1.05c-0.12,0 -0.22,0.1 -0.22,0.23l0 1.76c0,0.12 0.1,0.22 0.22,0.22 0.13,0 0.23,-0.1 0.23,-0.22l0 -1.76c0,-0.13 -0.1,-0.23 -0.23,-0.23z"/>
    <path class="fil0" d="M14.34 1.05c-0.13,0 -0.23,0.1 -0.23,0.23l0 1.76c0,0.12 0.1,0.22 0.23,0.22 0.12,0 0.22,-0.1 0.22,-0.22l0 -1.76c0,-0.13 -0.1,-0.23 -0.22,-0.23z"/>
    <path class="fil1" d="M11.91 15.38c-0.98,0 -1.78,-0.8 -1.78,-1.78l-0.14 -11.02c0,-0.59 -0.48,-1.08 -1.07,-1.08 -0.6,0 -1.08,0.49 -1.08,1.08 0,0.12 -0.1,0.22 -0.23,0.22 -0.12,0 -0.22,-0.1 -0.22,-0.22 0,-0.84 0.68,-1.53 1.53,-1.53 0.84,0 1.52,0.69 1.52,1.53l0.14 11.02c0,0.74 0.6,1.33 1.33,1.33 0.74,0 1.34,-0.59 1.34,-1.33l0 -7.94c0,-0.12 0.1,-0.22 0.22,-0.22 0.12,0 0.22,0.1 0.22,0.22l0 7.94c0,0.98 -0.8,1.78 -1.78,1.78z"/>
    <path class="fil2" d="M6.18 2.36l0 -1.31 -3.27 0 0 1.31 -0.8 0c-0.49,0 -0.88,0.39 -0.88,0.87l0 11.28c0,0.48 0.39,0.87 0.88,0.87l4.88 0c0.48,0 0.87,-0.39 0.87,-0.87l0 -12.15 -1.68 0z"/>
    <path class="fil2" d="M15.21 2.82l-3.47 0 0 0.44 0.24 0 0 1.14c0,0.7 0.56,1.26 1.26,1.26l0.46 0c0.7,0 1.26,-0.56 1.26,-1.26l0 -1.14 0.25 0 0 -0.44z"/>
    <polygon class="fil0" points="12.71,3.93 14.23,3.93 14.23,3.48 12.71,3.48 "/>
    <polygon class="fil0" points="12.71,4.96 14.23,4.96 14.23,4.51 12.71,4.51 "/>
    <polygon class="fil3" points="5.68,4.44 6.93,4.44 6.93,3.32 5.68,3.32 "/>
    <polygon class="fil3" points="2.16,6.44 6.93,6.44 6.93,5.32 2.16,5.32 "/>
    <polygon class="fil3" points="2.16,8.43 6.93,8.43 6.93,7.31 2.16,7.31 "/>
    <polygon class="fil3" points="2.16,10.43 6.93,10.43 6.93,9.31 2.16,9.31 "/>
    <polygon class="fil3" points="2.16,12.42 6.93,12.42 6.93,11.3 2.16,11.3 "/>
    <polygon class="fil3" points="2.16,14.42 6.93,14.42 6.93,13.3 2.16,13.3 "/>
   </g>
   <rect class="fil4" width="16.44" height="16.44"/>
  </g>
 </g>
</svg>
