<?xml version="1.0" encoding="UTF-8"?>
<!DOCTYPE svg PUBLIC "-//W3C//DTD SVG 1.1//EN" "http://www.w3.org/Graphics/SVG/1.1/DTD/svg11.dtd">
<!-- Creator: CorelDRAW 2018 (64 Bit Versão de avaliação) -->
<svg xmlns="http://www.w3.org/2000/svg" xml:space="preserve" width="300px" height="300px" version="1.1" style="shape-rendering:geometricPrecision; text-rendering:geometricPrecision; image-rendering:optimizeQuality; fill-rule:evenodd; clip-rule:evenodd"
viewBox="0 0 21.05 21.05"
 xmlns:xlink="http://www.w3.org/1999/xlink">
 <defs>
  <style type="text/css">
   <![CDATA[
    .fil4 {fill:none}
    .fil0 {fill:#282B2D}
    .fil3 {fill:#3096FC;fill-rule:nonzero}
    .fil1 {fill:#30C9FC;fill-rule:nonzero}
    .fil2 {fill:#383838;fill-rule:nonzero}
   ]]>
  </style>
 </defs>
 <g id="Camada_x0020_1">
  <metadata id="CorelCorpID_0Corel-Layer"/>
  <g id="_1671406216704">
   <g>
    <path class="fil0" d="M7.73 12.33l0.52 0 0 3.44c0,0.78 0.64,1.41 1.41,1.41 0.78,0 1.42,-0.63 1.42,-1.41l0 -0.17c0,-0.78 0.63,-1.42 1.42,-1.42 0.78,0 1.42,0.64 1.42,1.42l0 1.16c0,1.1 0.89,2 2,2 1.1,0 1.99,-0.9 1.99,-2l0 -4.7 0.53 0 0 4.7c0,1.39 -1.13,2.53 -2.52,2.53 -1.4,0 -2.53,-1.14 -2.53,-2.53l0 -1.16c0,-0.49 -0.4,-0.89 -0.89,-0.89 -0.5,0 -0.9,0.4 -0.9,0.89l0 0.17c0,1.07 -0.87,1.94 -1.94,1.94 -1.06,0 -1.93,-0.87 -1.93,-1.94l0 -3.44z"/>
    <path class="fil1" d="M17.12 5.9c-0.18,0 -0.33,0.15 -0.33,0.33l0 2.14c0,0.18 0.15,0.33 0.33,0.33 0.19,0 0.33,-0.15 0.33,-0.33l0 -2.14c0,-0.18 -0.14,-0.33 -0.33,-0.33z"/>
    <path class="fil1" d="M19.23 5.9c-0.18,0 -0.33,0.15 -0.33,0.33l0 2.14c0,0.18 0.15,0.33 0.33,0.33 0.18,0 0.33,-0.15 0.33,-0.33l0 -2.14c0,-0.18 -0.15,-0.33 -0.33,-0.33z"/>
    <path class="fil2" d="M20.42 8.11l-4.48 0 0 0.53 0.43 0 0 2.09c0,0.88 0.71,1.6 1.59,1.6l0.43 0c0.88,0 1.6,-0.72 1.6,-1.6l0 -2.09 0.43 0 0 -0.53z"/>
    <polygon class="fil1" points="17.19,9.95 19.17,9.95 19.17,9.43 17.19,9.43 "/>
    <polygon class="fil1" points="17.19,11.27 19.17,11.27 19.17,10.74 17.19,10.74 "/>
    <path class="fil3" d="M12.88 7.64l-0.65 -0.47c-0.17,-0.12 -0.22,-0.35 -0.11,-0.53l0.42 -0.69c0.14,-0.23 0.02,-0.53 -0.25,-0.59l-0.78 -0.19c-0.2,-0.05 -0.33,-0.24 -0.3,-0.45l0.13 -0.8c0.04,-0.26 -0.19,-0.5 -0.46,-0.45l-0.8 0.12c-0.2,0.04 -0.4,-0.09 -0.45,-0.3l-0.18 -0.78c-0.07,-0.26 -0.37,-0.39 -0.6,-0.25l-0.69 0.42c-0.17,0.11 -0.4,0.07 -0.53,-0.1l-0.47 -0.65c-0.16,-0.22 -0.49,-0.22 -0.65,0l-0.47 0.65c-0.12,0.17 -0.35,0.21 -0.53,0.1l-0.68 -0.42c-0.24,-0.14 -0.54,-0.01 -0.6,0.25l-0.19 0.78c-0.05,0.21 -0.24,0.34 -0.45,0.3l-0.79 -0.12c-0.27,-0.05 -0.5,0.19 -0.46,0.45l0.13 0.8c0.03,0.21 -0.1,0.4 -0.31,0.45l-0.78 0.19c-0.26,0.06 -0.39,0.36 -0.25,0.59l0.43 0.69c0.1,0.18 0.06,0.41 -0.11,0.53l-0.65 0.47c-0.22,0.16 -0.22,0.49 0,0.65l0.65 0.47c0.17,0.12 0.21,0.36 0.11,0.53l-0.43 0.69c-0.14,0.23 -0.01,0.53 0.25,0.6l0.78 0.18c0.21,0.05 0.34,0.25 0.31,0.45l-0.13 0.8c-0.04,0.27 0.19,0.5 0.46,0.46l0.79 -0.13c0.21,-0.03 0.4,0.1 0.45,0.3l0.19 0.78c0.06,0.27 0.36,0.39 0.6,0.25l0.68 -0.42c0.18,-0.11 0.41,-0.06 0.53,0.1l0.47 0.66c0.16,0.22 0.49,0.22 0.65,0l0.47 -0.66c0.13,-0.16 0.36,-0.21 0.53,-0.1l0.69 0.42c0.23,0.14 0.53,0.02 0.6,-0.25l0.18 -0.78c0.05,-0.2 0.25,-0.33 0.45,-0.3l0.8 0.13c0.27,0.04 0.5,-0.19 0.46,-0.46l-0.13 -0.8c-0.03,-0.2 0.1,-0.4 0.3,-0.45l0.78 -0.18c0.27,-0.07 0.39,-0.37 0.25,-0.6l-0.42 -0.69c-0.11,-0.17 -0.06,-0.41 0.11,-0.53l0.65 -0.47c0.22,-0.16 0.22,-0.49 0,-0.65z"/>
    <path class="fil1" d="M3.67 7.97c0,1.75 1.42,3.17 3.17,3.17 1.75,0 3.17,-1.42 3.17,-3.17 0,-1.75 -1.42,-3.18 -3.17,-3.18 -1.75,0 -3.17,1.43 -3.17,3.18z"/>
   </g>
   <rect class="fil4" width="21.05" height="21.05"/>
  </g>
 </g>
</svg>
