<?xml version="1.0" encoding="UTF-8"?>
<!DOCTYPE svg PUBLIC "-//W3C//DTD SVG 1.1//EN" "http://www.w3.org/Graphics/SVG/1.1/DTD/svg11.dtd">
<!-- Creator: CorelDRAW 2018 (64 Bit Versão de avaliação) -->
<svg xmlns="http://www.w3.org/2000/svg" xml:space="preserve" width="500px" height="500px" version="1.1" style="shape-rendering:geometricPrecision; text-rendering:geometricPrecision; image-rendering:optimizeQuality; fill-rule:evenodd; clip-rule:evenodd"
viewBox="0 0 22.99 22.99"
 xmlns:xlink="http://www.w3.org/1999/xlink">
 <defs>
  <style type="text/css">
   <![CDATA[
    .fil0 {fill:#3096FC;fill-rule:nonzero}
   ]]>
  </style>
 </defs>
 <g id="Camada_x0020_1">
  <metadata id="CorelCorpID_0Corel-Layer"/>
  <path class="fil0" d="M2.55 18.81l3.96 -3.96 1.63 1.63 -3.96 3.96 -1.63 -1.63zm8.95 -12.1c1.32,0 2.51,0.54 3.38,1.4 0.86,0.87 1.4,2.07 1.4,3.39 0,1.32 -0.54,2.51 -1.4,3.38 -0.87,0.86 -2.06,1.4 -3.38,1.4 -1.32,0 -2.52,-0.54 -3.39,-1.4 -0.86,-0.87 -1.4,-2.06 -1.4,-3.38 0,-1.32 0.54,-2.52 1.4,-3.39 0.87,-0.86 2.07,-1.4 3.39,-1.4zm1.75 3.03c-0.45,-0.45 -1.07,-0.72 -1.75,-0.72 -0.69,0 -1.31,0.27 -1.76,0.72 -0.45,0.45 -0.72,1.07 -0.72,1.76 0,0.68 0.27,1.3 0.72,1.75 0.45,0.45 1.07,0.73 1.76,0.73 0.68,0 1.3,-0.28 1.75,-0.73 0.45,-0.45 0.73,-1.07 0.73,-1.75 0,-0.69 -0.28,-1.31 -0.73,-1.76zm-0.6 7.65l0 5.6 -2.31 0 0 -5.6 2.31 0zm0 -17.39l0 5.6 -2.31 0 0 -5.6 2.31 0zm-7.05 12.65l-5.6 0 0 -2.31 5.6 0 0 2.31zm17.39 0l-5.6 0 0 -2.31 5.6 0 0 2.31zm-16.48 -4.51l-3.96 -3.96 1.63 -1.63 3.96 3.96 -1.63 1.63zm12.3 12.3l-3.96 -3.96 1.63 -1.63 3.96 3.96 -1.63 1.63zm-3.96 -13.93l3.96 -3.96 1.63 1.63 -3.96 3.96 -1.63 -1.63z"/>
 </g>
</svg>
