<?xml version="1.0" encoding="UTF-8"?>
<!DOCTYPE svg PUBLIC "-//W3C//DTD SVG 1.1//EN" "http://www.w3.org/Graphics/SVG/1.1/DTD/svg11.dtd">
<!-- Creator: CorelDRAW 2018 (64 Bit Versão de avaliação) -->
<svg xmlns="http://www.w3.org/2000/svg" xml:space="preserve" width="300px" height="300px" version="1.1" style="shape-rendering:geometricPrecision; text-rendering:geometricPrecision; image-rendering:optimizeQuality; fill-rule:evenodd; clip-rule:evenodd"
viewBox="0 0 24.49 24.49"
 xmlns:xlink="http://www.w3.org/1999/xlink">
 <defs>
  <style type="text/css">
   <![CDATA[
    .fil4 {fill:none}
    .fil1 {fill:#282B2D;fill-rule:nonzero}
    .fil3 {fill:#3096FC;fill-rule:nonzero}
    .fil2 {fill:#30C9FC;fill-rule:nonzero}
    .fil0 {fill:#383838;fill-rule:nonzero}
   ]]>
  </style>
 </defs>
 <g id="Camada_x0020_1">
  <metadata id="CorelCorpID_0Corel-Layer"/>
  <g id="_1671405332480">
   <g>
    <path class="fil0" d="M15.67 8.81c-2.35,-2.15 -4.46,-2.6 -5.94,-1.13 -1.86,1.86 -2.26,2.26 -4.77,4.77l7.07 7.08c2.51,-2.51 2.91,-2.91 4.77,-4.77 1.48,-1.48 1.03,-3.6 -1.13,-5.95z"/>
    <path class="fil1" d="M12.03 19.53l-7.07 -7.08 -2.61 2.61 0.85 0.85 -0.34 0.34c-0.42,0.43 -0.41,1.13 0.03,1.57l3.78 3.77c0.44,0.44 1.14,0.46 1.56,0.04l0.34 -0.34 0.85 0.85 2.61 -2.61z"/>
    <polygon class="fil2" points="4.65,11.67 4.18,12.14 12.35,20.31 12.81,19.84 "/>
    <polygon class="fil2" points="8.9,19.47 11.04,21.61 11.51,21.14 9.37,19 "/>
    <polygon class="fil2" points="8.05,17.68 3.34,12.98 2.88,13.44 7.58,18.15 "/>
    <polygon class="fil2" points="5.07,18.25 9.74,22.92 10.2,22.45 5.54,17.78 "/>
    <polygon class="fil2" points="1.57,14.75 3.9,17.08 4.37,16.62 2.04,14.28 "/>
    <path class="fil3" d="M22.71 8.9l-0.81 -0.59c-0.21,-0.15 -0.27,-0.44 -0.13,-0.66l0.52 -0.85c0.18,-0.29 0.02,-0.67 -0.31,-0.75l-0.97 -0.23c-0.26,-0.06 -0.42,-0.31 -0.38,-0.56l0.16 -0.99c0.05,-0.34 -0.24,-0.63 -0.57,-0.57l-0.99 0.15c-0.26,0.05 -0.5,-0.12 -0.56,-0.37l-0.23 -0.98c-0.08,-0.33 -0.46,-0.48 -0.75,-0.3l-0.85 0.52c-0.22,0.14 -0.51,0.08 -0.67,-0.13l-0.58 -0.81c-0.2,-0.28 -0.61,-0.28 -0.81,0l-0.59 0.81c-0.15,0.21 -0.44,0.27 -0.66,0.13l-0.86 -0.52c-0.28,-0.18 -0.66,-0.03 -0.74,0.3l-0.23 0.98c-0.06,0.25 -0.31,0.42 -0.57,0.37l-0.99 -0.15c-0.33,-0.06 -0.62,0.23 -0.56,0.57l0.15 0.99c0.04,0.25 -0.12,0.5 -0.37,0.56l-0.98 0.23c-0.33,0.08 -0.48,0.46 -0.31,0.75l0.53 0.85c0.14,0.22 0.08,0.51 -0.13,0.66l-0.81 0.59c-0.28,0.2 -0.28,0.61 0,0.81l0.81 0.58c0.21,0.16 0.27,0.45 0.13,0.67l-0.53 0.85c-0.17,0.29 -0.02,0.67 0.31,0.75l0.98 0.23c0.25,0.06 0.41,0.3 0.37,0.56l-0.15 0.99c-0.06,0.34 0.23,0.62 0.56,0.57l0.99 -0.16c0.26,-0.04 0.51,0.13 0.57,0.38l0.23 0.97c0.08,0.33 0.46,0.49 0.74,0.31l0.86 -0.52c0.22,-0.14 0.51,-0.08 0.66,0.13l0.59 0.81c0.2,0.28 0.61,0.28 0.81,0l0.58 -0.81c0.16,-0.21 0.45,-0.27 0.67,-0.13l0.85 0.52c0.29,0.18 0.67,0.02 0.75,-0.31l0.23 -0.97c0.06,-0.25 0.3,-0.42 0.56,-0.38l0.99 0.16c0.33,0.05 0.62,-0.23 0.57,-0.57l-0.16 -0.99c-0.04,-0.26 0.12,-0.5 0.38,-0.56l0.97 -0.23c0.33,-0.08 0.49,-0.46 0.31,-0.75l-0.52 -0.85c-0.14,-0.22 -0.08,-0.51 0.13,-0.67l0.81 -0.58c0.27,-0.2 0.27,-0.61 0,-0.81z"/>
    <path class="fil2" d="M11.23 9.3c0,2.19 1.77,3.96 3.95,3.96 2.19,0 3.96,-1.77 3.96,-3.96 0,-2.18 -1.77,-3.95 -3.96,-3.95 -2.18,0 -3.95,1.77 -3.95,3.95z"/>
   </g>
   <rect class="fil4" width="24.49" height="24.49"/>
  </g>
 </g>
</svg>
