<?xml version="1.0" encoding="UTF-8"?>
<!DOCTYPE svg PUBLIC "-//W3C//DTD SVG 1.1//EN" "http://www.w3.org/Graphics/SVG/1.1/DTD/svg11.dtd">
<!-- Creator: CorelDRAW 2018 (64 Bit Versão de avaliação) -->
<svg xmlns="http://www.w3.org/2000/svg" xml:space="preserve" width="300px" height="300px" version="1.1" style="shape-rendering:geometricPrecision; text-rendering:geometricPrecision; image-rendering:optimizeQuality; fill-rule:evenodd; clip-rule:evenodd"
viewBox="0 0 22.53 22.53"
 xmlns:xlink="http://www.w3.org/1999/xlink">
 <defs>
  <style type="text/css">
   <![CDATA[
    .fil0 {fill:none}
    .fil5 {fill:#126EC9;fill-rule:nonzero}
    .fil4 {fill:#282B2D;fill-rule:nonzero}
    .fil2 {fill:#3096FC;fill-rule:nonzero}
    .fil1 {fill:#30C9FC;fill-rule:nonzero}
    .fil3 {fill:#383838;fill-rule:nonzero}
   ]]>
  </style>
 </defs>
 <g id="Camada_x0020_1">
  <metadata id="CorelCorpID_0Corel-Layer"/>
  <g id="_1671400867616">
   <rect class="fil0" width="22.53" height="22.53"/>
   <path class="fil1" d="M9.43 16.29c-0.17,0.64 -0.51,1.25 -1.01,1.74 -1.15,1.14 -5.39,2.5 -5.87,2.64 -0.05,0.01 -0.09,0.02 -0.14,0.02l-0.01 0c-0.14,0 -0.29,-0.06 -0.39,-0.16 -0.14,-0.15 -0.2,-0.36 -0.14,-0.56 0.14,-0.46 1.51,-4.7 2.64,-5.85 0.5,-0.49 1.11,-0.84 1.75,-1l1.58 1.58 1.59 1.59z"/>
   <path class="fil2" d="M8.03 15.29l-1.56 1.57c-0.11,0.1 -0.26,0.16 -0.39,0.16 -0.14,0 -0.29,-0.06 -0.4,-0.16l0 -0.01c-0.21,-0.22 -0.21,-0.56 0,-0.77l1.57 -1.56c0.21,-0.22 0.55,-0.22 0.76,0l0.02 0c0.22,0.21 0.22,0.56 0,0.77z"/>
   <path class="fil3" d="M8.27 7.28c-3.93,0 -5.16,3.31 -5.26,3.42 -0.09,0.17 -0.08,0.38 0.02,0.54 0.1,0.16 0.28,0.26 0.47,0.26 2.27,0.2 3.68,0.33 3.57,0.32l1.88 -4.54 -0.68 0 0 0z"/>
   <path class="fil3" d="M10.72 15.46c0,0.11 0.28,3.76 0.26,3.53 0,0.41 0.44,0.67 0.8,0.49 0.12,-0.1 3.43,-1.36 3.43,-5.26l0 -0.68 -4.49 1.92z"/>
   <path class="fil4" d="M11.16 16.09c-0.58,0.3 -1.17,0.58 -1.72,0.86 -0.21,0.11 -0.46,0.07 -0.64,-0.1l-3.12 -3.11c-0.16,-0.18 -0.21,-0.43 -0.1,-0.64 0.28,-0.56 0.57,-1.14 0.87,-1.73 0.17,-0.34 1.45,0.42 1.63,0.07l3.02 3.01c-0.36,0.18 0.4,1.46 0.06,1.64z"/>
   <path class="fil2" d="M20.23 7.33c-0.5,1.9 -1.39,3.45 -2.78,4.78 -1.63,1.57 -4.22,2.94 -6.29,3.98l-2.35 -2.35 -2.36 -2.37c1.03,-2.06 2.4,-4.67 3.97,-6.28 1.34,-1.39 2.89,-2.29 4.79,-2.79l1.11 0.41c0.02,0.96 0.41,1.84 1.04,2.47 0.63,0.63 1.5,1.01 2.46,1.03l0.41 1.12z"/>
   <path class="fil1" d="M15.83 6.7c-1.07,-1.07 -2.82,-1.07 -3.89,0 -1.08,1.08 -1.08,2.82 0,3.9l0 0.01c1.07,1.07 2.82,1.07 3.89,0 1.09,-1.08 1.09,-2.83 0,-3.91z"/>
   <path class="fil3" d="M20.23 7.33c-0.09,0 -0.34,-0.01 -0.43,-0.01 -1.27,-0.02 -2.4,-0.53 -3.23,-1.36 -0.82,-0.83 -1.33,-1.95 -1.35,-3.22 0,-0.09 -0.01,-0.35 -0.01,-0.44 1.27,-0.33 2.67,-0.46 4.01,-0.46 0.31,0 0.62,0.01 0.92,0.02 0.15,0 0.28,0.06 0.38,0.16 0.1,0.1 0.15,0.23 0.15,0.37 0.07,1.62 -0.04,3.37 -0.44,4.94z"/>
   <path class="fil5" d="M11.14 12.17c-0.21,0.22 -0.56,0.22 -0.77,0 -0.22,-0.21 -0.22,-0.57 0,-0.78 0.21,-0.22 0.56,-0.22 0.77,0 0.22,0.21 0.22,0.57 0,0.78z"/>
  </g>
 </g>
</svg>
