<?xml version="1.0" encoding="UTF-8"?>
<!DOCTYPE svg PUBLIC "-//W3C//DTD SVG 1.1//EN" "http://www.w3.org/Graphics/SVG/1.1/DTD/svg11.dtd">
<!-- Creator: CorelDRAW 2018 (64 Bit Versão de avaliação) -->
<svg xmlns="http://www.w3.org/2000/svg" xml:space="preserve" width="300px" height="1.05833E+06px" version="1.1" style="shape-rendering:geometricPrecision; text-rendering:geometricPrecision; image-rendering:optimizeQuality; fill-rule:evenodd; clip-rule:evenodd"
viewBox="0 0 18.46 18.46"
 xmlns:xlink="http://www.w3.org/1999/xlink">
 <defs>
  <style type="text/css">
   <![CDATA[
    .fil4 {fill:none}
    .fil1 {fill:#282B2D;fill-rule:nonzero}
    .fil3 {fill:#3096FC;fill-rule:nonzero}
    .fil0 {fill:#30C9FC;fill-rule:nonzero}
    .fil2 {fill:#383838;fill-rule:nonzero}
   ]]>
  </style>
 </defs>
 <g id="Camada_x0020_1">
  <metadata id="CorelCorpID_0Corel-Layer"/>
  <g id="_1671456720320">
   <g>
    <path class="fil0" d="M16.2 10.65c-0.17,-0.01 -0.32,0.13 -0.32,0.3l-0.07 1.91c-0.01,0.17 0.13,0.31 0.3,0.32l0.01 0c0.16,0 0.3,-0.13 0.31,-0.3l0.06 -1.91c0.01,-0.17 -0.12,-0.31 -0.29,-0.32z"/>
    <path class="fil0" d="M14.31 10.58c-0.17,-0.01 -0.31,0.13 -0.32,0.3l-0.06 1.91c-0.01,0.17 0.12,0.32 0.29,0.32l0.02 0c0.16,0 0.3,-0.13 0.3,-0.29l0.07 -1.92c0.01,-0.17 -0.13,-0.31 -0.3,-0.32z"/>
    <path class="fil1" d="M8.15 2.5c-0.14,0.01 -0.28,0.02 -0.43,0.04l0.06 0.49c0.13,-0.02 0.27,-0.03 0.4,-0.04 3.8,-0.23 7.08,2.67 7.31,6.47l0.49 -0.03c-0.25,-4.07 -3.76,-7.18 -7.83,-6.93z"/>
    <path class="fil1" d="M13.36 14.87c-1.18,1.13 -2.71,1.8 -4.34,1.9 -3.79,0.23 -7.07,-2.67 -7.31,-6.47 -0.13,-2.25 0.84,-4.44 2.62,-5.84l-0.31 -0.39c-1.9,1.51 -2.95,3.85 -2.8,6.26 0.24,3.92 3.5,6.95 7.38,6.95 0.15,0 0.3,-0.01 0.45,-0.02 1.76,-0.11 3.4,-0.83 4.67,-2.04l0.44 0.43 0.43 -1.67 -1.67 0.47 0.44 0.42z"/>
    <path class="fil2" d="M16.87 10.74l0.05 -1.49c0.03,-0.83 -0.62,-1.53 -1.44,-1.56l-0.24 0c-0.83,-0.03 -1.52,0.61 -1.55,1.44l-0.06 1.49 -0.38 -0.01 -0.01 0.49 4 0.14 0.01 -0.49 -0.38 -0.01z"/>
    <polygon class="fil0" points="16.35,9.54 14.24,9.46 14.22,9.96 16.33,10.03 "/>
    <polygon class="fil3" points="7.03,7.84 5.97,1.18 4.62,11.04 9.11,8.7 10.12,15.31 11.52,5.5 "/>
   </g>
   <rect class="fil4" width="18.46" height="18.46"/>
  </g>
 </g>
</svg>
