<?xml version="1.0" encoding="UTF-8"?>
<!DOCTYPE svg PUBLIC "-//W3C//DTD SVG 1.1//EN" "http://www.w3.org/Graphics/SVG/1.1/DTD/svg11.dtd">
<!-- Creator: CorelDRAW 2018 (64 Bit Versão de avaliação) -->
<svg xmlns="http://www.w3.org/2000/svg" xml:space="preserve" width="300px" height="300px" version="1.1" style="shape-rendering:geometricPrecision; text-rendering:geometricPrecision; image-rendering:optimizeQuality; fill-rule:evenodd; clip-rule:evenodd"
viewBox="0 0 14.81 14.81"
 xmlns:xlink="http://www.w3.org/1999/xlink">
 <defs>
  <style type="text/css">
   <![CDATA[
    .fil4 {fill:none}
    .fil2 {fill:#282B2D;fill-rule:nonzero}
    .fil0 {fill:#3096FC;fill-rule:nonzero}
    .fil1 {fill:#30C9FC;fill-rule:nonzero}
    .fil3 {fill:#383838;fill-rule:nonzero}
   ]]>
  </style>
 </defs>
 <g id="Camada_x0020_1">
  <metadata id="CorelCorpID_0Corel-Layer"/>
  <g id="_1671382701072">
   <g>
    <polygon class="fil0" points="4.23,1.58 4.75,2.29 5.49,1.83 5.69,2.68 6.55,2.54 6.42,3.4 7.27,3.61 6.81,4.35 7.52,4.86 6.81,5.37 7.27,6.12 6.42,6.32 6.55,7.18 5.69,7.05 5.49,7.9 4.75,7.44 4.23,8.15 3.72,7.44 2.98,7.9 2.77,7.05 1.91,7.18 2.05,6.32 1.2,6.12 1.66,5.37 0.95,4.86 1.66,4.35 1.2,3.61 2.05,3.4 1.91,2.54 2.77,2.68 2.98,1.83 3.72,2.29 "/>
    <path class="fil1" d="M5.92 4.86c0,0.93 -0.75,1.69 -1.69,1.69 -0.93,0 -1.69,-0.76 -1.69,-1.69 0,-0.93 0.76,-1.69 1.69,-1.69 0.94,0 1.69,0.76 1.69,1.69z"/>
    <polygon class="fil2" points="4.93,11.92 5.52,11.92 5.52,10.54 4.93,10.54 "/>
    <polygon class="fil2" points="12.37,13.23 12.97,13.23 12.97,11.32 12.37,11.32 "/>
    <polygon class="fil0" points="13.66,11.43 4.23,10.44 4.23,5.46 13.66,4.47 "/>
    <path class="fil3" d="M11.51 6.63l0 -1.74 1.96 -0.2 0 1.87 -1.96 0.07zm1.96 4.58l-1.96 -0.21 0 -1.74 1.96 0.07 0 1.88zm-9.04 -2.21l1.96 0.08 0 1.38 -1.96 -0.2 0 -1.26zm0 -3.36l1.96 -0.21 0 1.39 -1.96 0.07 0 -1.25zm4.72 1.08l0 -1.58 1.96 -0.21 0 1.72 -1.96 0.07zm0 2.45l1.96 0.08 0 1.71 -1.96 -0.21 0 -1.58zm-0.4 -0.01l0 1.55 -1.96 -0.21 0 -1.41 1.96 0.07zm-1.96 -2.36l0 -1.41 1.96 -0.21 0 1.55 -1.96 0.07zm-0.4 1.88l-1.96 -0.07 0 -1.32 1.96 -0.07 0 1.46zm0.4 -1.48l1.96 -0.07 0 1.63 -1.96 -0.07 0 -1.49zm4.72 -0.17l1.96 -0.07 0 1.97 -1.96 -0.07 0 -1.83zm-0.4 1.82l-1.96 -0.07 0 -1.66 1.96 -0.07 0 1.8zm-7.08 -3.57l0 5.33 9.83 1.04 0 -7.41 -9.83 1.04z"/>
   </g>
   <rect class="fil4" width="14.81" height="14.81"/>
  </g>
 </g>
</svg>
