<?xml version="1.0" encoding="UTF-8"?>
<!DOCTYPE svg PUBLIC "-//W3C//DTD SVG 1.1//EN" "http://www.w3.org/Graphics/SVG/1.1/DTD/svg11.dtd">
<!-- Creator: CorelDRAW 2018 (64 Bit Versão de avaliação) -->
<svg xmlns="http://www.w3.org/2000/svg" xml:space="preserve" width="300px" height="300px" version="1.1" style="shape-rendering:geometricPrecision; text-rendering:geometricPrecision; image-rendering:optimizeQuality; fill-rule:evenodd; clip-rule:evenodd"
viewBox="0 0 17.88 17.88"
 xmlns:xlink="http://www.w3.org/1999/xlink">
 <defs>
  <style type="text/css">
   <![CDATA[
    .fil6 {fill:none}
    .fil0 {fill:#282B2D}
    .fil3 {fill:#126EC9;fill-rule:nonzero}
    .fil1 {fill:#126EC9;fill-rule:nonzero}
    .fil4 {fill:#3096FC;fill-rule:nonzero}
    .fil2 {fill:#30C9FC;fill-rule:nonzero}
    .fil5 {fill:#383838;fill-rule:nonzero}
   ]]>
  </style>
 </defs>
 <g id="Camada_x0020_1">
  <metadata id="CorelCorpID_0Corel-Layer"/>
  <g id="_1670761788000">
   <g>
    <circle class="fil0" cx="10.07" cy="8.22" r="4.75"/>
    <path class="fil1" d="M16.24 8.56c-0.05,0.95 -0.32,1.86 -0.79,2.68l0.42 0.24c0.51,-0.89 0.8,-1.86 0.86,-2.89l-0.49 -0.03z"/>
    <path class="fil2" d="M16.7 7.39c-0.18,-1.51 -0.89,-2.93 -1.98,-4l-0.34 0.35c1.01,0.99 1.67,2.3 1.83,3.71l0.49 -0.06z"/>
    <path class="fil3" d="M5.8 3.05l0.31 0.37c1.11,-0.92 2.51,-1.43 3.96,-1.43 1.21,0 2.39,0.36 3.4,1.02l0.27 -0.4c-1.09,-0.72 -2.36,-1.1 -3.67,-1.1 -1.56,0 -3.08,0.54 -4.27,1.54z"/>
    <path class="fil2" d="M4.43 4.6l0.41 0.27c0.14,-0.22 0.29,-0.43 0.45,-0.62l-0.38 -0.31c-0.17,0.21 -0.34,0.43 -0.48,0.66z"/>
    <path class="fil1" d="M3.85 5.73c-0.3,0.78 -0.46,1.6 -0.46,2.45 0,0.66 0.09,1.3 0.28,1.92l0.47 -0.14c-0.18,-0.57 -0.26,-1.17 -0.26,-1.78 0,-0.78 0.14,-1.55 0.43,-2.27l-0.46 -0.18z"/>
    <path class="fil4" d="M9.93 9.12l-3.06 0c0.37,0 0.67,-0.3 0.67,-0.67 0,-0.37 -0.3,-0.68 -0.67,-0.68l1.96 0c0.37,0 0.67,-0.3 0.67,-0.67 0,-0.37 -0.3,-0.67 -0.67,-0.67l-0.98 0c0.37,0 0.67,-0.3 0.67,-0.67 0,-0.38 -0.3,-0.68 -0.67,-0.68l-1.38 0c-0.71,0.84 -1.15,1.92 -1.15,3.1 0,0.83 0.21,1.61 0.59,2.29l4.02 0c0.38,0 0.68,-0.3 0.68,-0.67 0,-0.37 -0.3,-0.68 -0.68,-0.68z"/>
    <path class="fil4" d="M14.48 6.43l-2.51 0c-0.37,0 -0.67,0.3 -0.67,0.67 0,0.38 0.3,0.68 0.67,0.68l1.47 0c-0.37,0 -0.67,0.3 -0.67,0.67 0,0.37 0.3,0.67 0.67,0.67l1.28 0c0.06,-0.3 0.09,-0.62 0.09,-0.94 0,-0.62 -0.12,-1.21 -0.33,-1.75z"/>
    <path class="fil4" d="M11.54 11.14c0,0.37 0.3,0.68 0.68,0.68l0.9 0c0.45,-0.38 0.82,-0.84 1.11,-1.35l-2.01 0c-0.38,0 -0.68,0.3 -0.68,0.67z"/>
    <path class="fil5" d="M1.91 10.89l0 0c-0.42,0 -0.76,0.34 -0.76,0.76l0 2.76c0,0.42 0.34,0.76 0.76,0.76l0 0c0.42,0 0.76,-0.34 0.76,-0.76l0 -2.76c0,-0.42 -0.34,-0.76 -0.76,-0.76z"/>
    <path class="fil4" d="M12.41 13.49c-0.26,0.13 -0.54,0.27 -0.82,0.42l0 0 0 0c-0.68,0.33 -1.39,0.49 -2.19,0.49 -0.62,0 -1.29,-0.1 -2.01,-0.29 -0.14,-0.04 -0.23,-0.18 -0.19,-0.32 0.04,-0.14 0.18,-0.22 0.32,-0.19 1.54,0.41 2.76,0.36 3.84,-0.16l0 0c0.47,-0.24 0.48,-0.33 0.5,-0.51 0.04,-0.29 -0.01,-0.51 -0.14,-0.65 -0.19,-0.2 -0.52,-0.19 -0.52,-0.19 -2.5,0.04 -2.96,-0.22 -3.48,-0.53 -0.48,-0.28 -1.02,-0.6 -3.95,-0.65l-0.01 0c-0.16,0 -0.31,0.06 -0.43,0.17 -0.12,0.12 -0.18,0.27 -0.18,0.44l0 3.18c0,0.25 0.14,0.46 0.35,0.57 1.46,0.71 5.88,2.87 12.11,-1.92l0.03 -0.02c0.05,-0.03 0.51,-0.34 0.3,-0.71 -0.39,-0.72 -1.6,-0.14 -3.53,0.87z"/>
    <path class="fil2" d="M2.21 14.39c0,0.16 -0.13,0.3 -0.3,0.3 -0.17,0 -0.3,-0.14 -0.3,-0.3 0,-0.17 0.13,-0.31 0.3,-0.31 0.17,0 0.3,0.14 0.3,0.31z"/>
   </g>
   <rect class="fil6" width="17.88" height="17.88"/>
  </g>
 </g>
</svg>
